<?xml version="1.0" encoding="UTF-8"?>
<svg xmlns="http://www.w3.org/2000/svg" xmlns:xlink="http://www.w3.org/1999/xlink" width="150pt" height="150pt" viewBox="0 0 150 150" version="1.1">
<g id="surface1">
<path style=" stroke:none;fill-rule:nonzero;fill:rgb(0%,0%,0%);fill-opacity:1;" d="M 75.101562 27.328125 C 55.789062 27.328125 38.292969 28.617188 25.769531 30.667969 C 19.507812 31.695312 14.472656 32.925781 11.214844 34.1875 C 9.585938 34.820312 8.40625 35.472656 7.808594 35.949219 C 7.621094 36.101562 7.597656 36.140625 7.53125 36.214844 C 7.597656 36.285156 7.621094 36.328125 7.808594 36.476562 C 8.40625 36.953125 9.585938 37.609375 11.214844 38.238281 C 14.472656 39.5 19.507812 40.734375 25.769531 41.757812 C 38.292969 43.808594 55.785156 45.097656 75.101562 45.097656 C 94.417969 45.097656 111.910156 43.808594 124.4375 41.757812 C 130.699219 40.734375 135.730469 39.5 138.992188 38.238281 C 140.621094 37.609375 141.800781 36.953125 142.394531 36.476562 C 142.582031 36.328125 142.605469 36.285156 142.675781 36.214844 C 142.605469 36.140625 142.582031 36.097656 142.394531 35.949219 C 141.800781 35.472656 140.621094 34.816406 138.992188 34.1875 C 135.730469 32.925781 130.699219 31.691406 124.4375 30.667969 C 111.910156 28.617188 94.417969 27.328125 75.101562 27.328125 Z M 75 30.019531 C 84.640625 30.019531 94.058594 30.3125 102.023438 30.859375 L 102.023438 38.84375 C 94.066406 39.394531 84.648438 39.6875 75 39.6875 C 48.496094 39.6875 27.007812 37.523438 27.007812 34.855469 C 27 32.183594 48.492188 30.019531 75 30.019531 Z M 107.296875 31.285156 C 117.277344 32.199219 122.972656 33.496094 122.992188 34.855469 C 122.972656 36.214844 117.277344 37.507812 107.296875 38.421875 Z M 7.324219 42.304688 L 7.324219 73.421875 L 7.371094 73.421875 L 7.371094 75.9375 C 7.375 75.785156 7.464844 76.160156 8.535156 76.808594 C 9.785156 77.566406 11.976562 78.457031 14.878906 79.28125 C 15.886719 79.570312 16.988281 79.847656 18.164062 80.121094 L 18.164062 45.691406 C 14.695312 44.933594 11.726562 44.09375 9.3125 43.15625 C 8.601562 42.882812 7.941406 42.601562 7.324219 42.304688 Z M 142.675781 42.402344 C 142.117188 42.664062 141.527344 42.914062 140.894531 43.15625 C 137.03125 44.652344 131.761719 45.902344 125.289062 46.964844 C 112.34375 49.082031 94.652344 50.375 75.101562 50.375 C 57.394531 50.375 41.222656 49.3125 28.710938 47.539062 L 28.710938 82.054688 C 32.191406 82.5625 36.023438 83.019531 40.164062 83.410156 C 61.738281 85.449219 88.46875 85.449219 110.039062 83.410156 C 120.824219 82.390625 129.515625 80.929688 135.324219 79.28125 C 138.230469 78.457031 140.417969 77.566406 141.671875 76.808594 C 142.242188 76.464844 142.527344 76.199219 142.675781 76.046875 Z M 14.0625 84.527344 L 14.0625 145.3125 L 25.195312 145.3125 L 25.195312 86.851562 C 20.925781 86.160156 17.199219 85.382812 14.0625 84.527344 Z M 135.9375 84.582031 C 129.660156 86.277344 121.058594 87.667969 110.535156 88.660156 C 88.5625 90.738281 61.644531 90.738281 39.671875 88.660156 C 38.328125 88.535156 37.019531 88.402344 35.742188 88.261719 L 35.742188 145.3125 L 135.9375 145.3125 Z M 135.9375 84.582031 "/>
</g>
</svg>
