<?xml version="1.0" encoding="UTF-8"?>
<svg xmlns="http://www.w3.org/2000/svg" xmlns:xlink="http://www.w3.org/1999/xlink" width="180pt" height="180pt" viewBox="0 0 180 180" version="1.1">
<g id="surface1">
<path style=" stroke:none;fill-rule:nonzero;fill:rgb(0%,0%,0%);fill-opacity:1;" d="M 90.125 32.792969 C 66.945312 32.792969 45.953125 34.339844 30.925781 36.800781 C 23.410156 38.03125 17.367188 39.511719 13.457031 41.023438 C 11.5 41.78125 10.085938 42.570312 9.371094 43.140625 C 9.148438 43.320312 9.117188 43.371094 9.035156 43.457031 C 9.117188 43.542969 9.148438 43.59375 9.371094 43.773438 C 10.085938 44.34375 11.5 45.132812 13.457031 45.886719 C 17.367188 47.402344 23.410156 48.878906 30.921875 50.109375 C 45.953125 52.570312 66.945312 54.117188 90.125 54.117188 C 113.300781 54.117188 134.292969 52.570312 149.324219 50.109375 C 156.835938 48.878906 162.878906 47.402344 166.789062 45.886719 C 168.746094 45.128906 170.160156 44.34375 170.875 43.773438 C 171.097656 43.59375 171.128906 43.542969 171.207031 43.457031 C 171.128906 43.367188 171.097656 43.320312 170.875 43.140625 C 170.160156 42.566406 168.746094 41.78125 166.789062 41.023438 C 162.878906 39.511719 156.835938 38.03125 149.324219 36.800781 C 134.292969 34.339844 113.300781 32.792969 90.125 32.792969 Z M 90 36.023438 C 101.570312 36.023438 112.871094 36.375 122.429688 37.03125 L 122.429688 46.613281 C 112.878906 47.273438 101.574219 47.625 90 47.628906 C 58.195312 47.628906 32.410156 45.03125 32.40625 41.824219 C 32.402344 38.621094 58.1875 36.023438 90 36.023438 Z M 128.757812 37.542969 C 140.734375 38.640625 147.570312 40.195312 147.59375 41.824219 C 147.566406 43.457031 140.730469 45.011719 128.757812 46.109375 Z M 8.789062 50.765625 L 8.789062 88.105469 L 8.84375 88.105469 L 8.84375 91.125 C 8.847656 90.941406 8.957031 91.394531 10.242188 92.171875 C 11.746094 93.082031 14.371094 94.152344 17.855469 95.140625 C 19.066406 95.480469 20.386719 95.816406 21.796875 96.144531 L 21.796875 54.828125 C 17.632812 53.917969 14.074219 52.914062 11.171875 51.789062 C 10.320312 51.457031 9.53125 51.121094 8.789062 50.765625 Z M 171.210938 50.882812 C 170.542969 51.195312 169.832031 51.496094 169.074219 51.789062 C 164.4375 53.582031 158.113281 55.085938 150.34375 56.355469 C 134.8125 58.898438 113.582031 60.449219 90.125 60.449219 C 68.875 60.449219 49.46875 59.175781 34.453125 57.046875 L 34.453125 98.464844 C 38.628906 99.074219 43.226562 99.625 48.199219 100.09375 C 74.082031 102.539062 106.164062 102.539062 132.046875 100.09375 C 144.992188 98.871094 155.417969 97.117188 162.390625 95.140625 C 165.875 94.148438 168.503906 93.082031 170.003906 92.171875 C 170.691406 91.757812 171.03125 91.4375 171.210938 91.253906 Z M 16.875 101.429688 L 16.875 174.375 L 30.234375 174.375 L 30.234375 104.222656 C 25.113281 103.394531 20.640625 102.460938 16.875 101.429688 Z M 163.125 101.496094 C 155.589844 103.53125 145.269531 105.199219 132.644531 106.394531 C 106.273438 108.886719 73.972656 108.886719 47.605469 106.394531 C 45.996094 106.242188 44.425781 106.082031 42.890625 105.914062 L 42.890625 174.375 L 163.125 174.375 Z M 163.125 101.496094 "/>
</g>
</svg>
