<?xml version="1.0" encoding="UTF-8"?>
<svg xmlns="http://www.w3.org/2000/svg" xmlns:xlink="http://www.w3.org/1999/xlink" width="140pt" height="140pt" viewBox="0 0 140 140" version="1.1">
<g id="surface1">
<path style=" stroke:none;fill-rule:nonzero;fill:rgb(0%,0%,0%);fill-opacity:1;" d="M 70.097656 25.507812 C 52.070312 25.507812 35.742188 26.710938 24.050781 28.625 C 18.207031 29.582031 13.507812 30.730469 10.46875 31.90625 C 8.945312 32.496094 7.84375 33.109375 7.289062 33.554688 C 7.113281 33.695312 7.089844 33.730469 7.027344 33.800781 C 7.089844 33.867188 7.113281 33.90625 7.289062 34.046875 C 7.84375 34.492188 8.945312 35.101562 10.464844 35.691406 C 13.507812 36.867188 18.207031 38.019531 24.050781 38.976562 C 35.738281 40.890625 52.066406 42.09375 70.09375 42.09375 C 88.125 42.09375 104.453125 40.890625 116.140625 38.976562 C 121.984375 38.019531 126.683594 36.867188 129.726562 35.691406 C 131.246094 35.101562 132.347656 34.488281 132.902344 34.046875 C 133.078125 33.90625 133.101562 33.867188 133.164062 33.800781 C 133.097656 33.730469 133.078125 33.691406 132.902344 33.554688 C 132.347656 33.109375 131.246094 32.496094 129.726562 31.90625 C 126.683594 30.730469 121.984375 29.582031 116.140625 28.625 C 104.453125 26.710938 88.125 25.503906 70.09375 25.503906 Z M 70 28.015625 C 79 28.015625 87.789062 28.289062 95.222656 28.800781 L 95.222656 36.253906 C 87.792969 36.765625 79.003906 37.042969 70 37.042969 C 45.261719 37.042969 25.210938 35.023438 25.207031 32.53125 C 25.203125 30.039062 45.257812 28.015625 70 28.015625 Z M 100.144531 29.199219 C 109.457031 30.054688 114.777344 31.261719 114.792969 32.53125 C 114.773438 33.800781 109.457031 35.007812 100.144531 35.863281 Z M 6.835938 39.484375 L 6.835938 68.527344 L 6.878906 68.527344 L 6.878906 70.875 C 6.882812 70.730469 6.96875 71.082031 7.964844 71.6875 C 9.132812 72.394531 11.175781 73.226562 13.886719 73.996094 C 14.828125 74.265625 15.855469 74.523438 16.953125 74.78125 L 16.953125 42.644531 C 13.714844 41.9375 10.945312 41.152344 8.691406 40.28125 C 8.027344 40.023438 7.414062 39.757812 6.835938 39.484375 Z M 133.164062 39.574219 C 132.644531 39.820312 132.089844 40.050781 131.503906 40.28125 C 127.898438 41.675781 122.976562 42.84375 116.9375 43.832031 C 104.851562 45.8125 88.34375 47.015625 70.097656 47.015625 C 53.570312 47.015625 38.476562 46.023438 26.796875 44.367188 L 26.796875 76.585938 C 30.046875 77.058594 33.621094 77.484375 37.488281 77.851562 C 57.621094 79.753906 82.570312 79.753906 102.703125 77.851562 C 112.769531 76.898438 120.882812 75.535156 126.304688 73.996094 C 129.015625 73.226562 131.058594 72.394531 132.226562 71.6875 C 132.757812 71.367188 133.023438 71.121094 133.164062 70.976562 Z M 13.125 78.890625 L 13.125 135.625 L 23.515625 135.625 L 23.515625 81.0625 C 19.53125 80.417969 16.054688 79.691406 13.125 78.890625 Z M 126.875 78.941406 C 121.015625 80.523438 112.988281 81.824219 103.167969 82.75 C 82.65625 84.691406 57.535156 84.691406 37.023438 82.75 C 35.773438 82.632812 34.550781 82.507812 33.359375 82.378906 L 33.359375 135.625 L 126.875 135.625 Z M 126.875 78.941406 "/>
</g>
</svg>
